<?xml version="1.0" encoding="utf-8"?>
<!-- Generator: Adobe Illustrator 23.0.4, SVG Export Plug-In . SVG Version: 6.00 Build 0)  -->
<svg version="1.1"
	 id="svg6957" inkscape:version="0.91 r13725" xmlns:cc="http://creativecommons.org/ns#" xmlns:dc="http://purl.org/dc/elements/1.1/" xmlns:inkscape="http://www.inkscape.org/namespaces/inkscape" xmlns:rdf="http://www.w3.org/1999/02/22-rdf-syntax-ns#" xmlns:sodipodi="http://sodipodi.sourceforge.net/DTD/sodipodi-0.dtd" xmlns:svg="http://www.w3.org/2000/svg"
	 xmlns="http://www.w3.org/2000/svg" xmlns:xlink="http://www.w3.org/1999/xlink" x="0px" y="0px" viewBox="0 0 738.2 205.3"
	 style="enable-background:new 0 0 738.2 205.3;" xml:space="preserve">
<sodipodi:namedview  bordercolor="#666666" borderopacity="1.0" id="base" inkscape:current-layer="layer1" inkscape:cx="663.8909" inkscape:cy="613.50835" inkscape:document-units="px" inkscape:pageopacity="0.0" inkscape:pageshadow="2" inkscape:window-height="705" inkscape:window-maximized="1" inkscape:window-width="1366" inkscape:window-x="-8" inkscape:window-y="-8" inkscape:zoom="0.24748737" pagecolor="#ffffff" showgrid="false" units="px">
	</sodipodi:namedview>
<g id="layer1" transform="translate(0,-842.20716)" inkscape:groupmode="layer" inkscape:label="Layer 1">
	<path id="path7516" fill="#e60012" inkscape:connector-curvature="0" d="M566.4,890.3h-12.8v-34h12.8c9.3,0,16.8,7.5,16.8,17.2
		C583.7,882.8,575.7,890.3,566.4,890.3z M566,844h-24.3v58.7H566c16.8,0,30-13.2,30-29.1C596,857.2,582.8,844,566,844L566,844z
		 M521,953.5c12.4,0,24.3,6.6,30.5,17.2l18.1-15.5c-11-16.3-29.1-26-49-26c-32.7,0-59.2,26.5-59.2,59.2s26.5,59.2,59.2,59.2
		c19.9,0,38-9.7,49-26l-18.1-15.5c-6.2,10.6-17.7,17.2-30.5,17.2c-19.4,0-34.9-15.5-34.9-34.4C486.1,968.9,501.5,953.5,521,953.5
		L521,953.5L521,953.5z M350.6,956.1h35.3v87h23.8v-87h34.4v-23.4h-93.6V956.1L350.6,956.1z M669.3,976.4h-51.7v-43.7h-23v110.4h23
		v-44.2h51.7v44.2h23V932.7h-23V976.4z M732.9,1026.8l-4,11.9l-4-11.9h-4.4v16.3h3.1v-12.8l4.4,12.4l0,0h2.6l0,0l4.4-12.4v12.8h3.1
		v-16.3H732.9L732.9,1026.8z M665.3,891.7c-10.2,0-18.1-8.4-18.1-18.1c0-10.2,8.4-18.1,18.1-18.1c10.2,0,18.1,8.4,18.1,18.1
		S675.1,891.7,665.3,891.7z M665.3,842.2c-17.2,0-31.3,14.1-31.3,31.3c0,17.2,14.1,31.3,31.3,31.3c17.2,0,31.3-14.1,31.3-31.3
		C696.2,856.3,682.6,842.2,665.3,842.2L665.3,842.2z M702.9,1029.8h4.9v13.2h3.1v-13.2h4.9v-3.1h-13.2L702.9,1029.8L702.9,1029.8z
		 M391.2,891.7h-33.6V878H389v-10.6h-31.3V855h33.6v-11h-45.5v58.7h45.5V891.7L391.2,891.7L391.2,891.7z M492.3,902.7V844h-11.9
		v38.4L451.2,844h-11.9v58.7h11.9v-39.3l29.1,39.3H492.3L492.3,902.7z M101.5,902.7h13.2V844h-13.2V902.7L101.5,902.7z M50.3,976
		c-15.9-2.6-26-5.7-26-13.2c0-8.4,11.5-11.9,26.9-11.9c14.1,0,28.7,5.3,34,7.5l7.9-19c-5.7-2.2-23.4-8.4-42.8-8.4
		c-23.8,0-49.4,11.5-49.4,33.1c0,17.7,12.4,26.5,44.2,31.8c22.5,4,34.4,5.7,34.4,15.5c0,5.3-4.4,14.1-29.6,14.1
		c-20.3,0-34.4-7.5-39.3-10.2l-10.6,19c5.7,3.1,24.3,11.9,48.6,11.9c35.3,0,53.9-12.4,53.9-35.3C102,997.6,97.1,983.9,50.3,976
		L50.3,976L50.3,976z M226,1013.1l-23.4-80.4h-19.4l-23.4,79.9l-21.2-79.9h-23.8l31.3,110.4h26.5l20.8-72.8l20.3,72.8h26.5
		l31.3-110.4h-23.8L226,1013.1L226,1013.1L226,1013.1z M170.4,863.4l29.1,39.3H211V844h-11.9v38.4L170.4,844h-11.9v58.7h11.9V863.4z
		 M298.9,1043.1h24.7V932.7h-24.7V1043.1z M302.4,844H253v12.4h18.5v46.4h12.8v-46.4h18.1V844L302.4,844z M16.3,863.4l29.1,39.3H57
		V844H45v38.4L16.3,844H4.4v58.7h11.9V863.4L16.3,863.4z"/>
</g>
</svg>
