<?xml version="1.0" encoding="utf-8"?>
<svg version="1.1" id="Nintendo Switch" xmlns="http://www.w3.org/2000/svg" xmlns:xlink="http://www.w3.org/1999/xlink" x="0px"
	 y="0px" viewBox="0 0 226.5 47.6" enable-background="new 0 0 226.5 47.6" xml:space="preserve">
<path fill="#FFFFFF" d="M7.4,14.3c0,2.5,2,4.5,4.5,4.5s4.5-2,4.5-4.5s-2-4.5-4.5-4.5l0,0C9.4,9.8,7.4,11.8,7.4,14.3L7.4,14.3z
	 M19.1,43.8h-6.9c-2.2,0-4.4-0.9-5.9-2.4c-1.6-1.6-2.5-3.7-2.5-5.9V12.2c0-2.2,0.9-4.3,2.4-5.9c1.6-1.6,3.7-2.5,5.9-2.5H19v40H19.1z
	 M22.6,0H12.2C5.5,0,0,5.5,0,12.2v23.2c0,6.7,5.5,12.2,12.2,12.2h10.4c0.2,0,0.3-0.2,0.3-0.3l0,0v-47C23,0.2,22.8,0,22.6,0L22.6,0z
	 M37.1,21.4c2.7,0.1,4.8,2.3,4.7,4.9S39.7,31,37.1,31c-2.7-0.1-4.8-2.3-4.7-4.9C32.5,23.5,34.5,21.4,37.1,21.4z M28.1,47.6h7.3
	c6.7,0,12.2-5.5,12.2-12.2V12.2C47.6,5.5,42.1,0,35.4,0H28c-0.2,0-0.3,0.1-0.3,0.3l0,0v46.9C27.7,47.4,27.9,47.6,28.1,47.6
	L28.1,47.6z M187.6,11.5h-2.9V3.8h2.9c2.1,0,3.8,1.7,3.8,3.9C191.5,9.8,189.7,11.5,187.6,11.5z M187.5,1H182v13.3h5.5
	c3.8,0,6.8-3,6.8-6.6C194.3,4,191.3,1,187.5,1L187.5,1z M177.3,25.8c2.8,0,5.5,1.5,6.9,3.9l4.1-3.5c-2.5-3.7-6.6-5.9-11.1-5.9
	c-7.4,0-13.4,6-13.4,13.4s6,13.4,13.4,13.4c4.5,0,8.6-2.2,11.1-5.9l-4.1-3.5c-1.4,2.4-4,3.9-6.9,3.9c-4.4,0-7.9-3.5-7.9-7.8
	C169.4,29.3,172.9,25.8,177.3,25.8L177.3,25.8z M138.7,26.4h8v19.7h5.4V26.4h7.8v-5.3h-21.2V26.4L138.7,26.4z M210.9,31h-11.7v-9.9
	H194v25h5.2v-10h11.7v10h5.2v-25h-5.2C210.9,21.1,210.9,31,210.9,31z M225.3,42.4l-0.9,2.7l-0.9-2.7h-1v3.7h0.7v-2.9l1,2.8l0,0h0.6
	l0,0l1-2.8v2.9h0.7v-3.7H225.3L225.3,42.4z M210,11.8c-2.3,0-4.1-1.9-4.1-4.1c0-2.3,1.9-4.1,4.1-4.1c2.3,0,4.1,1.9,4.1,4.1
	S212.2,11.8,210,11.8z M210,0.6c-3.9,0-7.1,3.2-7.1,7.1s3.2,7.1,7.1,7.1c3.9,0,7.1-3.2,7.1-7.1C217,3.8,213.9,0.6,210,0.6L210,0.6z
	 M218.5,43.1h1.1v3h0.7v-3h1.1v-0.7h-3L218.5,43.1L218.5,43.1z M147.9,11.8h-7.6V8.7h7.1V6.3h-7.1V3.5h7.6V1h-10.3v13.3h10.3V11.8
	L147.9,11.8z M170.8,14.3V1h-2.7v8.7L161.5,1h-2.7v13.3h2.7V5.4l6.6,8.9L170.8,14.3L170.8,14.3z M82.3,14.3h3V1h-3V14.3L82.3,14.3z
	 M70.7,30.9c-3.6-0.6-5.9-1.3-5.9-3c0-1.9,2.6-2.7,6.1-2.7c3.2,0,6.5,1.2,7.7,1.7l1.8-4.3c-1.3-0.5-5.3-1.9-9.7-1.9
	c-5.4,0-11.2,2.6-11.2,7.5c0,4,2.8,6,10,7.2c5.1,0.9,7.8,1.3,7.8,3.5c0,1.2-1,3.2-6.7,3.2c-4.6,0-7.8-1.7-8.9-2.3l-2.4,4.3
	c1.3,0.7,5.5,2.7,11,2.7c8,0,12.2-2.8,12.2-8C82.4,35.8,81.3,32.7,70.7,30.9L70.7,30.9z M110.5,39.3l-5.3-18.2h-4.4l-5.3,18.1
	l-4.8-18.1h-5.4l7.1,25h6l4.7-16.5l4.6,16.5h6l7.1-25h-5.4L110.5,39.3L110.5,39.3z M97.9,5.4l6.6,8.9h2.6V1h-2.7v8.7L97.9,1h-2.7
	v13.3h2.7V5.4z M127,46.1h5.6v-25H127V46.1z M127.8,1h-11.2v2.8h4.2v10.5h2.9V3.8h4.1V1L127.8,1z M63,5.4l6.6,8.9h2.6V1h-2.7v8.7
	L63,1h-2.7v13.3H63V5.4L63,5.4z"/>
</svg>