<svg xmlns="http://www.w3.org/2000/svg" viewBox="0 0 65.09 7.54">
    <path d="M.001 7.39C-.032 7.26.54 5.77 1.318 3.95c.077-.178.313-.743.527-1.257C2.848.276 2.852.27 3.076.133 3.272.012 3.482 0 5.384 0 7.748 0 7.73-.004 7.587.49c-.067.233-.702 1.82-.881 2.203-.037.08-.2.467-.363.862a60.53 60.53 0 0 1-.391.934c-.053.118-.328.78-.61 1.472-.616 1.503-.682 1.58-1.338 1.58-.57 0-.611-.066-.39-.632.368-.945.319-1.02-.672-1.02-.944 0-1.093.084-1.375.764-.112.271-.285.582-.384.69-.162.178-.228.198-.661.198-.429 0-.485-.016-.52-.151zm4.653-3.314c.16-.14.972-1.92.972-2.131 0-.037-.05-.118-.113-.18-.088-.088-.276-.113-.856-.113-.977 0-1.04.05-1.537 1.23-.342.812-.434 1.192-.319 1.307.027.027.413.048.858.048.737 0 .827-.014.995-.161zm25.151 3.417c-.127-.127-.047-.348 1.247-3.435.232-.553.677-1.62.989-2.37.483-1.164.602-1.389.804-1.526.233-.159.28-.162 2.304-.162 1.784 0 2.083.015 2.18.113.062.062.114.135.115.161 0 .027-.638 1.596-1.418 3.486-.875 2.12-1.485 3.503-1.591 3.609-.149.148-.24.172-.665.172-.49 0-.493-.001-.493-.197 0-.11.08-.392.178-.629.21-.51.215-.565.068-.713-.166-.166-1.472-.16-1.756.007-.214.127-.225.145-.564.899-.118.263-.28.514-.359.556-.156.084-.961.106-1.039.03zm4.608-3.4c.183-.152.946-1.852.946-2.108 0-.284-.13-.333-.88-.333-.96 0-1.067.062-1.41.812-.531 1.165-.61 1.405-.522 1.597.078.172.1.176.89.174.692-.002.833-.022.976-.141z" fill="#f80303" data-darkreader-inline-fill="" style="--darkreader-inline-fill:#c60202;"/>
    <path d="M5.594 7.41c-.038-.12.568-1.683 1.495-3.855.352-.826.577-1.041 1.084-1.041.42 0 .576.13.516.43-.072.36.035.432.639.432.638 0 .75.038.75.256 0 .258-.276.94-.478 1.181-.172.205-.206.214-.75.214-.991 0-1.057.06-1.607 1.437-.15.375-.355.77-.455.88-.165.177-.231.197-.668.197-.407 0-.49-.021-.526-.132zm3.503.017c-.052-.136.02-.365.368-1.179.143-.336.34-.804.435-1.041.096-.237.362-.866.59-1.398.575-1.339.498-1.295 2.278-1.295 1.402 0 1.548.026 1.548.28 0 .22-.328.965-.513 1.165-.187.203-.205.206-.955.206-.824 0-1.084.077-1.273.374-.191.3-.43.976-.407 1.146.023.163.05.169.774.189.79.022.938.075.938.338 0 .245-.29.91-.492 1.132l-.181.197h-1.533c-1.334 0-1.539-.015-1.577-.114zm4.213-.083c0-.11.396-1.163.88-2.343.798-1.945.904-2.162 1.13-2.317.247-.168.277-.17 1.98-.17 1.79 0 1.9.017 1.9.3 0 .071-.242.716-.539 1.433-.296.717-.538 1.365-.538 1.439 0 .076.074.163.17.2.093.035.19.116.214.18.06.159-.293 1.036-.516 1.278l-.182.197H13.31v-.197zm3.328-1.67c.202-.239.48-.922.48-1.18 0-.264-.168-.35-.613-.313-.51.042-.737.251-1 .92-.278.71-.236.788.426.788.497 0 .537-.012.707-.214zm1.964 1.82c-.027-.027-.048-.111-.048-.188 0-.126 1.53-3.914 1.764-4.37.179-.347.477-.422 1.683-.422h1.091l.19-.208c.106-.115.348-.597.538-1.07C24.234.206 24.366.06 24.91.014c.42-.035.611.05.611.27 0 .067-.14.459-.311.87l-1.046 2.508c-.404.968-.899 2.163-1.1 2.657-.2.494-.442.97-.538 1.06-.17.158-.204.161-2.024.161-1.018 0-1.873-.021-1.9-.048zm3.268-1.802c.1-.109.274-.432.384-.718.194-.505.196-.525.07-.665-.094-.104-.22-.143-.46-.143-.588 0-.85.257-1.19 1.166-.178.472-.096.557.532.557.432 0 .5-.02.664-.197zm1.615 1.801c-.1-.1-.023-.327.822-2.39.697-1.7.918-2.169 1.112-2.356l.243-.233h1.755c1.5 0 1.772.016 1.869.113.062.062.112.139.112.172 0 .132-.8 1.982-.9 2.083-.087.087-.371.117-1.359.145-1.205.035-1.255.042-1.437.214-.138.13-.183.235-.167.395l.021.217 1.108.02c1.137.02 1.298.06 1.298.314 0 .239-.36 1.024-.547 1.192-.176.16-.212.162-2.03.162-1.019 0-1.873-.021-1.9-.048zm3.98-3.466c.405-.405.246-.651-.42-.651-.411 0-.48.021-.669.21-.405.405-.246.651.42.651.411 0 .48-.021.669-.21zm7.942 3.466c-.115-.116.004-.467.86-2.517 1.012-2.427 1.036-2.462 1.7-2.462.393 0 .584.15.519.411-.096.38-.006.45.582.45.564 0 .816.079.816.254 0 .221-.376 1.028-.56 1.202-.174.164-.263.186-.853.208-.848.031-.901.08-1.43 1.33-.232.545-.473 1.007-.558 1.067-.152.107-.982.15-1.076.057zm3.441-.07c-.027-.072.289-.924.793-2.137.461-1.11.88-2.123.931-2.25a.934.934 0 0 1 .331-.377c.217-.132.36-.145 1.615-.145 1.157 0 1.396.018 1.49.113a.494.494 0 0 1 .113.142c0 .147-.418 1.043-.557 1.193-.17.184-.211.193-1.03.216-.84.023-.855.027-1.06.239-.251.259-.61 1.134-.547 1.332.04.127.113.14.762.14 1.071 0 1.14.075.807.875-.332.794-.288.777-2.07.777-1.36 0-1.537-.013-1.578-.119zm4.244.07c-.026-.026-.048-.103-.048-.17 0-.105 2.284-5.675 2.75-6.706.189-.42.472-.616.89-.617.648 0 .66.099.163 1.308-.515 1.253-.547 1.206.826 1.206.91 0 1.126.02 1.22.113.061.062.112.145.112.185 0 .04-.404 1.048-.899 2.24-.621 1.497-.956 2.217-1.085 2.33-.16.143-.25.162-.663.144-.42-.018-.48-.039-.498-.17-.012-.081.222-.727.52-1.435.299-.708.542-1.359.542-1.447 0-.338-.73-.431-1.151-.147-.205.139-.32.355-.805 1.526-.354.855-.632 1.425-.745 1.526-.146.132-.264.162-.63.162-.248 0-.473-.021-.499-.048zm4.88-.066c-.042-.109.463-1.427 1.373-3.585.5-1.183.66-1.35 1.266-1.314.465.028.552.157.392.576-.583 1.523-1.694 4.08-1.842 4.24-.164.177-.231.197-.664.197-.374 0-.492-.026-.526-.114zm2.102.024c-.02-.21.038-.39.398-1.257l.794-1.92c.556-1.351.65-1.524.896-1.651.252-.13.801-.144.923-.023a.351.351 0 0 1 .086.216c0 .072-.311.881-.69 1.8a72.23 72.23 0 0 0-.727 1.794c-.07.24.199.13.591-.24.405-.384.378-.328 1.452-2.921.222-.536.484-.735.966-.735.349 0 .49.093.49.322 0 .2-1.029 2.712-1.222 2.984-.151.212-1.302 1.178-1.83 1.537-.256.174-.322.184-1.195.184-.687 0-.926-.023-.932-.09zm4.222.042c-.026-.026-.048-.103-.048-.17 0-.237 1.798-4.412 1.979-4.594l.179-.18 1.702-.021c.936-.012 1.773-.004 1.86.018.273.068.257.27-.088 1.123-.583 1.442-.462 1.355-1.875 1.357-.6 0-1.173.033-1.275.071-.251.096-.485.488-.394.66.062.114.196.13 1.19.148 1.03.019 1.13.032 1.216.164.08.124.064.213-.12.646-.362.86-.265.826-2.427.826-1.018 0-1.873-.021-1.9-.048zm3.984-3.47c.156-.156.209-.27.192-.413-.022-.192-.038-.2-.506-.22-.552-.024-.726.045-.883.347-.083.161-.091.25-.034.357.065.12.151.143.547.143.426 0 .49-.02.684-.214zm.876 3.406c-.066-.17.326-1.074.565-1.302.21-.202.211-.202 1.433-.238l1.223-.036.173-.201c.187-.218.208-.314.103-.481-.055-.086-.304-.115-1.238-.144-1.106-.034-1.171-.044-1.19-.18-.012-.08.152-.565.364-1.078.547-1.323.408-1.255 2.597-1.255 1.253 0 1.758.024 1.82.086.141.14.1.38-.098.566-.179.167-.229.174-1.395.196-1.17.022-1.217.029-1.4.198-.144.134-.184.232-.167.409l.023.232 1.041.018c1.279.021 1.365.038 1.365.271 0 .265-1.002 2.624-1.212 2.854l-.18.197h-1.892c-1.651 0-1.897-.014-1.935-.112zm-8.72-5.892c-.08-.095-.078-.146.011-.304.145-.258.392-.369.824-.37.556-.002.699.246.346.6-.164.164-.25.189-.638.189-.323 0-.475-.032-.543-.115z" fill="#030303" data-darkreader-inline-fill="" style="--darkreader-inline-fill:#020203;"/>
</svg>