<?xml version="1.0" encoding="UTF-8"?>
<svg xmlns="http://www.w3.org/2000/svg" xmlns:xlink="http://www.w3.org/1999/xlink" width="193pt" height="193pt" viewBox="0 0 193 193" version="1.1">
<g id="surface1">
<path style=" stroke:none;fill-rule:evenodd;fill:rgb(100%,100%,100%);fill-opacity:1;" d="M 0 0.242188 L 192.757813 0.242188 L 192.757813 193 L 0 193 L 0 0.242188 "/>
<path style=" stroke:none;fill-rule:evenodd;fill:rgb(26.699829%,72.499084%,48.599243%);fill-opacity:1;" d="M 27.507813 161.964844 C 21.183594 161.964844 16.457031 167.65625 16.457031 172.742188 C 16.457031 179.386719 21.53125 183.882813 27.285156 183.882813 C 27.285156 183.882813 33.480469 183.921875 33.582031 183.921875 C 34.613281 183.921875 35.449219 183.105469 35.449219 182.09375 C 35.449219 181.085938 34.613281 180.269531 33.582031 180.269531 C 32.433594 180.269531 30.144531 180.15625 29.179688 180.15625 C 20.363281 180.15625 20.152344 173.503906 20.152344 173.171875 C 20.152344 173.082031 20.1875 171.269531 20.1875 171.246094 C 20.1875 169.957031 23.277344 165.410156 28.160156 165.410156 L 33.386719 165.410156 C 34.417969 165.410156 35.253906 164.800781 35.253906 163.792969 C 35.253906 162.78125 34.417969 161.964844 33.386719 161.964844 L 27.507813 161.964844 "/>
<path style=" stroke:none;fill-rule:evenodd;fill:rgb(26.699829%,72.499084%,48.599243%);fill-opacity:1;" d="M 72.304688 179.898438 C 68.433594 179.898438 67.703125 178.617188 67.703125 176.253906 C 67.703125 173.886719 70.335938 173.25 70.933594 173.25 C 70.933594 173.25 73.324219 173.25 74.429688 173.25 C 76.6875 173.25 78.289063 175.3125 78.289063 175.3125 L 78.277344 176.890625 C 77.460938 177.742188 75.113281 179.898438 72.304688 179.898438 Z M 82.394531 180.472656 L 82.007813 178.871094 L 82.007813 169.207031 C 82.007813 167.054688 81.6875 165.132813 80.332031 163.8125 C 77.636719 161.195313 73.386719 161.691406 70.980469 161.71875 L 69.734375 161.71875 C 68.703125 161.722656 67.863281 162.550781 67.867188 163.558594 C 67.875 164.570313 68.703125 165.378906 69.734375 165.375 L 71.015625 165.375 C 72.875 165.351563 75.75 165.035156 77.34375 166.578125 C 77.972656 167.195313 78.277344 168.050781 78.277344 169.207031 L 78.277344 169.726563 C 77.433594 169.605469 76.765625 169.597656 76.75 169.597656 L 72.167969 169.597656 C 69.109375 169.597656 63.570313 170.457031 63.570313 176.253906 C 63.570313 181.09375 65.46875 183.550781 72.304688 183.550781 C 74.984375 183.550781 77.269531 182.382813 78.894531 181.207031 L 79.199219 182.359375 C 79.460938 183.332031 80.25 183.414063 81.242188 183.171875 C 82.234375 182.933594 82.628906 181.445313 82.394531 180.472656 "/>
<path style=" stroke:none;fill-rule:evenodd;fill:rgb(26.699829%,72.499084%,48.599243%);fill-opacity:1;" d="M 111.878906 162.203125 C 110.851563 162.265625 110.0625 163.023438 110.117188 164.027344 L 110.273438 166.777344 C 110.285156 167.039063 110.886719 169.011719 111.007813 169.242188 L 117.058594 181.667969 C 117.378906 182.269531 119.207031 183.570313 119.902344 183.566406 C 120.601563 183.5625 121.835938 183.0625 122.738281 182.167969 L 129.445313 168.53125 C 129.734375 166.957031 129.851563 164.101563 129.851563 164.101563 C 129.984375 163.101563 129.257813 162.441406 128.242188 162.300781 C 127.222656 162.164063 126.269531 163.105469 126.121094 164.101563 L 125.792969 166.296875 C 125.792969 166.296875 123.300781 172.457031 121.28125 176.242188 C 120.773438 176.882813 119.535156 177.453125 118.515625 175.8125 C 116.519531 171.648438 114.460938 166.914063 114.214844 166.457031 C 114.1875 165.96875 113.847656 164.027344 113.847656 164.027344 C 113.789063 163.023438 112.90625 162.148438 111.878906 162.203125 "/>
<path style=" stroke:none;fill-rule:evenodd;fill:rgb(26.699829%,72.499084%,48.599243%);fill-opacity:1;" d="M 161.546875 169.886719 C 161.546875 169.886719 161.546875 169.882813 161.546875 169.878906 C 161.546875 169.761719 161.570313 168.808594 162.394531 168.003906 C 163.296875 167.117188 164.640625 166.640625 166.824219 166.640625 C 168.746094 166.640625 170.449219 167.070313 171.304688 167.90625 C 172.363281 168.945313 172.550781 170.582031 172.601563 172.105469 C 171.484375 172.523438 167.769531 172.957031 167.769531 172.957031 C 165.390625 172.957031 163.269531 172.339844 161.546875 171.964844 C 161.546875 171.132813 161.546875 169.886719 161.546875 169.886719 Z M 159.363281 165.519531 C 157.476563 167.449219 157.515625 169.710938 157.53125 169.960938 L 157.527344 177.382813 C 157.527344 182.289063 162.835938 184.496094 166.605469 184.496094 L 174.214844 184.207031 C 175.785156 184.167969 176.039063 183.175781 176.007813 182.167969 C 175.960938 181.160156 175.640625 180.558594 174.007813 180.558594 L 166.605469 180.839844 C 163.6875 180.839844 162.378906 179.027344 162.378906 178.457031 C 162.378906 178.457031 162.085938 177.597656 162.085938 176.957031 C 163.398438 176.457031 164.492188 176.28125 167.769531 176.28125 L 174.265625 176.042969 C 175.214844 175.949219 176.296875 174.25 176.296875 173.308594 C 176.300781 171.164063 176.421875 167.761719 173.945313 165.324219 C 172.363281 163.773438 169.773438 162.984375 166.824219 162.984375 C 163.519531 162.984375 161.011719 163.839844 159.363281 165.519531 "/>
<path style=" stroke:none;fill-rule:evenodd;fill:rgb(93.699646%,25.498962%,18.798828%);fill-opacity:1;" d="M 143.914063 106.289063 C 143.085938 113.652344 138.382813 121.648438 129.734375 122.921875 C 128.382813 123.214844 125.535156 123.566406 123 123.21875 C 128.3125 119.863281 132.035156 114.878906 133.660156 108.535156 C 134.234375 106.269531 134.511719 103.910156 134.511719 101.589844 C 134.511719 97.167969 133.480469 92.914063 131.65625 89.6875 L 137.871094 92.082031 C 142.933594 94 144.550781 100.59375 143.914063 106.289063 Z M 122.324219 139.097656 C 119.609375 141.355469 115.621094 142.296875 110.578125 142.042969 C 114.589844 137.101563 115.960938 130.027344 116.417969 126.285156 C 117.101563 126.066406 117.734375 125.789063 118.386719 125.535156 C 121.183594 127.058594 124.757813 127.160156 127.316406 126.941406 C 127.0625 130.449219 126.25 135.828125 122.324219 139.097656 Z M 99.140625 143.820313 C 99.316406 143.835938 93.03125 143.5625 93.03125 143.5625 C 84.121094 143.371094 68.347656 143.019531 64.535156 136.347656 C 64.871094 136.382813 65.152344 136.441406 65.5 136.464844 C 67.214844 136.574219 88 137.5 91.839844 136.597656 C 101.507813 134.320313 101.558594 126.953125 101.589844 123.414063 L 101.617188 122.109375 C 101.757813 120.082031 103.167969 114.796875 108.011719 114.6875 C 110.535156 114.625 113.175781 113.304688 115.253906 111.0625 C 117.859375 108.253906 119.199219 104.421875 118.917969 100.554688 C 118.785156 89.761719 111.859375 88.199219 107.742188 88.199219 C 105.761719 88.199219 104.117188 88.808594 102.695313 89.710938 C 105.9375 86.339844 112.90625 81.878906 120.773438 85.488281 C 126.015625 87.902344 126.660156 89.105469 126.660156 89.105469 C 129.878906 92.136719 132.019531 99.902344 130.039063 107.648438 C 128.886719 112.167969 125.289063 120.203125 114.195313 123.257813 L 112.96875 123.59375 L 112.84375 124.84375 C 112.402344 129.363281 110.113281 144.085938 99.140625 143.820313 Z M 86.824219 55.332031 C 87.667969 54.957031 91.425781 53.3125 93.785156 52.28125 C 94.164063 54.753906 94.921875 56.820313 96.09375 58.46875 C 95.964844 58.425781 89.960938 56.394531 86.824219 55.332031 Z M 93.769531 61.550781 C 93.902344 63.796875 95.613281 92.777344 95.613281 92.777344 C 95.695313 94.515625 95.746094 95.933594 95.746094 97.109375 C 95.746094 102.402344 94.691406 102.5625 90.726563 103.179688 L 89.058594 103.441406 C 85.925781 103.976563 84.6875 103.601563 84.1875 103.199219 C 83.570313 102.683594 83.292969 101.453125 83.292969 99.1875 C 83.292969 99.164063 82.851563 59.796875 82.851563 59.796875 C 82.851563 58.910156 82.914063 58.371094 83.054688 57.921875 C 83.117188 57.945313 91.859375 60.90625 93.769531 61.550781 Z M 70.765625 56.109375 C 70.765625 55.960938 70.667969 50.710938 75.296875 47.632813 L 77.367188 46.246094 L 82.472656 43.304688 L 85.039063 42.109375 C 87.839844 40.789063 90.246094 40.46875 91.8125 41.21875 C 92.878906 41.730469 93.597656 42.78125 93.945313 44.332031 C 94.269531 45.632813 94.738281 46.6875 95.269531 47.625 L 84.789063 52.210938 C 81.042969 54.039063 79.121094 54.980469 79.121094 59.796875 L 79.5625 99.207031 C 79.5625 101.769531 79.828125 104.386719 81.789063 105.996094 C 83.453125 107.371094 85.894531 107.695313 89.699219 107.046875 L 91.304688 106.789063 C 93.15625 106.507813 94.59375 106.15625 95.753906 105.617188 C 95.410156 108.53125 93.746094 110.863281 91.4375 111.277344 C 91.433594 111.277344 77.234375 112.554688 77.234375 112.554688 C 75.070313 112.691406 73.410156 112.253906 72.316406 111.253906 C 70.941406 109.988281 70.789063 108.152344 70.789063 107.421875 L 70.789063 57.730469 Z M 58.144531 122.070313 C 58.503906 117.085938 54.214844 114.558594 51.902344 113.917969 C 48.601563 112.148438 48.132813 107.332031 48.382813 103.636719 L 49.945313 72.890625 L 50.378906 63.816406 C 50.636719 58.640625 52.765625 56.710938 54.800781 55.511719 C 57.820313 53.738281 59.921875 48.5625 59.921875 45.03125 C 59.921875 42.585938 62.539063 38.609375 65.917969 37.136719 L 105.523438 16.203125 C 106.582031 15.613281 106.996094 15.828125 107.132813 15.902344 C 108.609375 16.691406 109.507813 20.839844 109.652344 23.390625 L 110.761719 37.777344 C 111.253906 43.351563 107.414063 47.75 103.523438 48.378906 C 100.632813 48.839844 98.46875 47.066406 97.578125 43.507813 C 96.84375 40.1875 94.925781 38.640625 93.449219 37.933594 C 90.792969 36.664063 87.332031 36.976563 83.417969 38.816406 L 80.886719 40 L 75.265625 43.230469 L 73.203125 44.605469 C 67.148438 48.632813 67.230469 56.386719 67.035156 56.195313 L 67.058594 57.730469 L 67.058594 107.421875 C 67.058594 109.972656 68.046875 112.34375 69.769531 113.917969 C 71.058594 115.105469 73.445313 116.460938 77.476563 116.203125 L 92.105469 114.875 C 96.464844 114.09375 99.625 109.769531 99.625 104.59375 C 99.625 102.5 101.035156 91.859375 107.742188 91.859375 C 114.242188 91.859375 115.132813 96.339844 115.183594 100.242188 L 115.199219 100.8125 C 115.40625 103.691406 114.417969 106.527344 112.496094 108.605469 C 111.117188 110.089844 109.40625 110.996094 107.917969 111.03125 C 101.09375 111.191406 98.1875 117.597656 97.894531 121.867188 L 97.855469 123.386719 C 97.832031 126.976563 97.796875 131.4375 90.972656 133.039063 C 88.148438 133.707031 69.863281 133.078125 65.738281 132.820313 C 59.488281 132.421875 57.730469 130.964844 58.144531 122.070313 Z M 121.183594 14.761719 L 124.050781 17.625 L 124.90625 44.210938 C 124.972656 47.605469 122.789063 52.003906 119.351563 55.4375 C 115.8125 58.972656 111.542969 60.996094 107.636719 60.996094 C 107.527344 60.996094 97.175781 60.84375 97.011719 49.925781 C 99.109375 51.867188 101.773438 52.363281 104.132813 51.984375 C 109.640625 51.089844 115.164063 45.300781 114.480469 37.484375 L 113.375 23.15625 C 113.308594 21.992188 112.863281 16.65625 110.347656 13.863281 C 114.675781 11.980469 117.945313 11.589844 121.183594 14.761719 Z M 136.886719 30.433594 C 137.574219 31.789063 138.425781 42.464844 138.753906 51.488281 C 138.894531 56.230469 135.195313 66.867188 123.289063 67.488281 C 117.246094 67.863281 112.59375 63.941406 112.546875 63.902344 L 112.113281 63.941406 C 115.597656 62.964844 119.050781 60.953125 122.015625 58 C 126.183594 53.839844 128.722656 48.539063 128.640625 44.175781 L 127.90625 21.46875 Z M 139.222656 88.679688 L 122.011719 82.046875 C 109.199219 78.164063 102.546875 84.304688 99.078125 88.15625 C 98.683594 81.519531 98.015625 71.058594 97.671875 65.265625 C 97.234375 61.980469 99.183594 61.761719 100.140625 62.359375 C 102.0625 63.570313 104.136719 64.273438 106.0625 64.527344 C 110.375 67.175781 118.109375 71.476563 123.507813 71.140625 C 138.105469 70.234375 142.65625 57.238281 142.484375 51.367188 C 141.976563 37.3125 141.019531 29.445313 139.636719 27.964844 L 123.824219 12.179688 C 117.472656 5.953125 110.476563 9.546875 104.855469 12.429688 L 104.898438 12.511719 C 104.519531 12.644531 104.136719 12.773438 103.714844 13.011719 L 64.269531 33.859375 L 64.398438 33.796875 C 59.949219 35.734375 56.191406 40.878906 56.191406 45.03125 C 56.191406 47.890625 54.34375 51.519531 52.886719 52.375 C 50.375 53.851563 47.007813 56.621094 46.65625 63.636719 L 46.21875 72.722656 L 44.660156 103.386719 C 44.074219 112.042969 47.523438 115.726563 50.523438 117.296875 C 51.273438 117.550781 53.734375 117.609375 54.609375 122.605469 C 56.523438 149.519531 76.59375 145.605469 98.871094 147.46875 C 113.238281 145.964844 104.523438 146.960938 104.523438 146.960938 C 112.898438 146.035156 118.515625 146.605469 124.742188 141.882813 C 130.390625 137.597656 130.871094 130.292969 131.09375 126.34375 C 141.125 124.488281 146.660156 115.246094 147.621094 106.691406 C 148.59375 98.042969 145.296875 90.972656 139.222656 88.679688 "/>
</g>
</svg>
